<svg width="826" height="641" viewBox="0 0 826 641" fill="none" xmlns="http://www.w3.org/2000/svg">
<g clip-path="url(#clip0)">
<path d="M479.735 627.22H288.489L294.972 542.943H473.252L479.735 627.22Z" fill="#2F2E41"/>
<path d="M492.7 617.496H278.765V636.945H492.7V617.496Z" fill="#2F2E41"/>
<path d="M750.396 0H19.4487C14.2906 0 9.34373 2.04906 5.6964 5.6964C2.04906 9.34373 0 14.2906 0 19.4487V465.148H769.844V19.4487C769.844 14.2906 767.795 9.34373 764.148 5.6964C760.5 2.04906 755.554 0 750.396 0V0Z" fill="#2F2E41"/>
<path d="M0 465.148V538.081C0 540.635 0.503049 543.164 1.48044 545.523C2.45783 547.883 3.89042 550.027 5.6964 551.833C7.50237 553.639 9.64639 555.071 12.006 556.049C14.3656 557.026 16.8947 557.529 19.4487 557.529H750.396C752.95 557.529 755.479 557.026 757.838 556.049C760.198 555.071 762.342 553.639 764.148 551.833C765.954 550.027 767.386 547.883 768.364 545.523C769.341 543.164 769.844 540.635 769.844 538.081V465.148H0Z" fill="#2F2E41"/>
<path d="M732.568 40.5181H38.8974V429.492H732.568V40.5181Z" fill="#E6E6E6"/>
<path d="M385.732 529.977C396.474 529.977 405.181 521.27 405.181 510.528C405.181 499.787 396.474 491.08 385.732 491.08C374.991 491.08 366.284 499.787 366.284 510.528C366.284 521.27 374.991 529.977 385.732 529.977Z" fill="#0AE800"/>
<path d="M60.5262 56.9475C62.5647 56.9475 64.2171 55.295 64.2171 53.2566C64.2171 51.2182 62.5647 49.5658 60.5262 49.5658C58.4878 49.5658 56.8354 51.2182 56.8354 53.2566C56.8354 55.295 58.4878 56.9475 60.5262 56.9475Z" fill="white"/>
<path d="M74.5359 56.9475C76.5743 56.9475 78.2267 55.295 78.2267 53.2566C78.2267 51.2182 76.5743 49.5658 74.5359 49.5658C72.4975 49.5658 70.845 51.2182 70.845 53.2566C70.845 55.295 72.4975 56.9475 74.5359 56.9475Z" fill="white"/>
<path d="M88.5454 56.9475C90.5838 56.9475 92.2363 55.295 92.2363 53.2566C92.2363 51.2182 90.5838 49.5658 88.5454 49.5658C86.507 49.5658 84.8546 51.2182 84.8546 53.2566C84.8546 55.295 86.507 56.9475 88.5454 56.9475Z" fill="white"/>
<path d="M796.344 263.058C796.344 263.058 802.289 340.34 793.966 342.718C785.644 345.096 755.92 362.93 708.362 358.174C708.362 358.174 661.992 383.142 669.126 359.363C676.26 335.584 708.362 341.529 708.362 341.529C708.362 341.529 765.431 329.639 767.809 321.317C770.187 312.994 760.675 278.514 764.242 277.325C767.809 276.136 796.344 263.058 796.344 263.058Z" fill="#FFB8B8"/>
<path opacity="0.2" d="M792.344 264.058C792.344 264.058 798.289 341.34 789.966 343.718C781.644 346.096 751.92 363.93 704.362 359.174C704.362 359.174 657.992 384.142 665.126 360.363C672.26 336.584 704.362 342.529 704.362 342.529C704.362 342.529 761.431 330.639 763.809 322.317C766.187 313.994 756.675 279.514 760.242 278.325C763.809 277.136 792.344 264.058 792.344 264.058Z" fill="#231F20"/>
<path d="M725.585 388.379C725.585 388.379 729.763 518.449 736.896 535.094C742.839 548.959 746.306 594.172 747.298 608.889C747.497 611.84 747.597 613.565 747.597 613.565C747.597 613.565 766.62 613.565 767.809 608.809C768.998 604.053 772.565 551.739 767.809 535.094C763.053 518.449 774.585 395.379 774.585 395.379L725.585 388.379Z" fill="#E6E6E6"/>
<path d="M752.353 607.62C752.353 607.62 740.463 611.187 738.085 615.943C735.708 620.699 696.472 629.021 708.362 634.966C720.251 640.911 755.92 630.21 755.92 630.21C755.92 630.21 774.943 629.021 773.754 621.888C772.565 614.754 768.235 605.964 768.235 605.964L752.353 607.62Z" fill="#2F2E41"/>
<path d="M785.643 611.421C785.643 611.421 773.754 614.988 771.376 619.744C768.998 624.5 729.763 632.822 741.652 638.767C753.542 644.712 789.21 634.011 789.21 634.011C789.21 634.011 808.234 632.822 807.045 625.688C805.856 618.555 801.526 609.765 801.526 609.765L785.643 611.421Z" fill="#2F2E41"/>
<path d="M735.708 395.032L752.353 423.567L780.133 522.777C780.133 522.777 777.321 613.799 780.888 613.799C784.455 613.799 803.478 619.744 804.667 613.799C805.671 608.777 818.988 560.674 812.35 528.656C808.032 508.42 805.255 487.886 804.042 467.23L801.1 411.677C801.1 411.677 812.989 390.276 799.911 386.709C786.832 383.142 735.708 395.032 735.708 395.032Z" fill="#E6E6E6"/>
<path d="M751.164 211.933C766.923 211.933 779.699 199.158 779.699 183.398C779.699 167.639 766.923 154.863 751.164 154.863C735.405 154.863 722.629 167.639 722.629 183.398C722.629 199.158 735.405 211.933 751.164 211.933Z" fill="#FFB8B8"/>
<path d="M747.597 202.421C747.597 202.421 752.353 240.468 751.164 242.846C749.975 245.224 779.699 216.689 779.699 216.689C779.699 216.689 768.998 200.043 771.376 191.721L747.597 202.421Z" fill="#FFB8B8"/>
<path d="M814.178 240.468C814.178 240.468 780.888 216.689 779.699 211.933L754.731 233.334L750.488 228.284C750.488 228.284 730.952 247.602 730.952 255.924C730.952 264.247 729.763 289.215 733.33 296.349C736.896 303.482 722.629 393.843 722.629 393.843C722.629 393.843 734.519 404.543 735.708 405.732C736.896 406.921 784.455 398.599 784.455 398.599C784.455 398.599 808.234 396.221 808.234 392.654C808.234 389.087 801.1 335.584 803.478 321.317C805.856 307.049 814.178 240.468 814.178 240.468Z" fill="#0AE800"/>
<path d="M738.975 169.144C742.876 167.755 747.179 167.043 751.156 168.193C756.784 169.822 760.683 174.756 764.887 178.837C769.092 182.918 774.988 186.535 780.525 184.616C780.191 182.216 780.821 179.782 782.276 177.845C782.999 177.123 783.533 176.234 783.831 175.257C784.068 173.728 782.783 172.41 782.397 170.912C781.722 168.288 783.573 164.695 781.297 163.224C780.696 162.835 779.936 162.747 779.349 162.337C777.048 160.729 779.603 156.728 778.082 154.369C777.626 153.76 777.034 153.266 776.353 152.927C765.32 146.489 751.828 146.471 739.056 146.634C737.278 146.656 734.802 147.539 735.304 149.245C732.89 147.513 729.729 149.946 727.783 152.191L723.801 156.788C721.93 158.786 720.297 160.996 718.935 163.371C717.718 165.697 717.449 169.274 719.87 170.288C718.07 169.534 715.887 180.196 724.185 178.441C729.006 177.422 733.732 171.01 738.975 169.144Z" fill="#2F2E41"/>
<path d="M712.575 65.7981H56.8354V392.472H712.575V65.7981Z" fill="white"/>
<path d="M239.745 113.806H96.4243V238.982H239.745V113.806Z" fill="#E6E6E6"/>
<path d="M456.588 114.182H313.698V238.982H456.588V114.182Z" fill="#E6E6E6"/>
<path d="M672.986 112.958H528.695V238.982H672.986V112.958Z" fill="#E6E6E6"/>
<path d="M236.601 293.621H96.4243V306.57H236.601V293.621Z" fill="#E6E6E6"/>
<path d="M166.657 316.418H96.4243V329.367H166.657V316.418Z" fill="#0AE800"/>
<path d="M456.211 293.621H316.034V306.57H456.211V293.621Z" fill="#E6E6E6"/>
<path d="M386.266 316.418H316.034V329.367H386.266V316.418Z" fill="#0AE800"/>
<path d="M670.33 293.621H530.154V306.57H670.33V293.621Z" fill="#E6E6E6"/>
<path d="M600.386 316.418H530.154V329.367H600.386V316.418Z" fill="#0AE800"/>
<path d="M359.587 272.876C363.242 272.876 366.205 269.913 366.205 266.258C366.205 262.604 363.242 259.641 359.587 259.641C355.932 259.641 352.97 262.604 352.97 266.258C352.97 269.913 355.932 272.876 359.587 272.876Z" fill="#0AE800"/>
<path d="M384.705 272.876C388.36 272.876 391.323 269.913 391.323 266.258C391.323 262.604 388.36 259.641 384.705 259.641C381.051 259.641 378.088 262.604 378.088 266.258C378.088 269.913 381.051 272.876 384.705 272.876Z" fill="#E6E6E6"/>
<path d="M409.824 272.876C413.478 272.876 416.441 269.913 416.441 266.258C416.441 262.604 413.478 259.641 409.824 259.641C406.169 259.641 403.206 262.604 403.206 266.258C403.206 269.913 406.169 272.876 409.824 272.876Z" fill="#E6E6E6"/>
<path d="M142.966 272.876C146.621 272.876 149.584 269.913 149.584 266.258C149.584 262.604 146.621 259.641 142.966 259.641C139.312 259.641 136.349 262.604 136.349 266.258C136.349 269.913 139.312 272.876 142.966 272.876Z" fill="#0AE800"/>
<path d="M168.085 272.876C171.739 272.876 174.702 269.913 174.702 266.258C174.702 262.604 171.739 259.641 168.085 259.641C164.43 259.641 161.467 262.604 161.467 266.258C161.467 269.913 164.43 272.876 168.085 272.876Z" fill="#0AE800"/>
<path d="M193.203 272.876C196.858 272.876 199.82 269.913 199.82 266.258C199.82 262.604 196.858 259.641 193.203 259.641C189.548 259.641 186.585 262.604 186.585 266.258C186.585 269.913 189.548 272.876 193.203 272.876Z" fill="#E6E6E6"/>
<path d="M581.55 272.876C585.205 272.876 588.167 269.913 588.167 266.258C588.167 262.604 585.205 259.641 581.55 259.641C577.895 259.641 574.932 262.604 574.932 266.258C574.932 269.913 577.895 272.876 581.55 272.876Z" fill="#0AE800"/>
<path d="M606.668 272.876C610.323 272.876 613.286 269.913 613.286 266.258C613.286 262.604 610.323 259.641 606.668 259.641C603.013 259.641 600.051 262.604 600.051 266.258C600.051 269.913 603.013 272.876 606.668 272.876Z" fill="#0AE800"/>
<path d="M631.786 272.876C635.441 272.876 638.404 269.913 638.404 266.258C638.404 262.604 635.441 259.641 631.786 259.641C628.132 259.641 625.169 262.604 625.169 266.258C625.169 269.913 628.132 272.876 631.786 272.876Z" fill="#0AE800"/>
<path d="M600.841 139.284C593.585 139.284 586.492 141.435 580.459 145.466C574.426 149.498 569.724 155.227 566.947 161.931C564.17 168.634 563.444 176.011 564.859 183.127C566.275 190.243 569.769 196.78 574.9 201.911C580.03 207.042 586.567 210.536 593.684 211.951C600.8 213.367 608.176 212.64 614.88 209.863C621.583 207.087 627.313 202.385 631.344 196.352C635.375 190.319 637.527 183.226 637.527 175.97C637.498 166.249 633.624 156.934 626.75 150.06C619.876 143.186 610.562 139.312 600.841 139.284V139.284ZM600.841 150.29C603.017 150.29 605.145 150.935 606.955 152.144C608.765 153.354 610.176 155.073 611.009 157.084C611.842 159.095 612.06 161.308 611.635 163.443C611.21 165.577 610.162 167.539 608.623 169.078C607.084 170.617 605.123 171.665 602.988 172.09C600.853 172.514 598.64 172.297 596.629 171.464C594.618 170.63 592.899 169.22 591.69 167.41C590.48 165.6 589.835 163.472 589.835 161.295C589.845 158.38 591.007 155.586 593.069 153.524C595.131 151.462 597.925 150.299 600.841 150.29ZM600.841 203.273C596.493 203.253 592.216 202.173 588.38 200.126C584.544 198.079 581.266 195.127 578.829 191.526C579.005 184.189 593.504 180.15 600.841 180.15C608.178 180.15 622.676 184.189 622.852 191.526C620.413 195.124 617.134 198.074 613.299 200.121C609.464 202.167 605.188 203.249 600.841 203.273V203.273Z" fill="#0AE800"/>
<path d="M385.143 139.896C377.887 139.896 370.794 142.047 364.761 146.079C358.728 150.11 354.026 155.839 351.25 162.543C348.473 169.246 347.746 176.623 349.162 183.739C350.577 190.856 354.071 197.392 359.202 202.523C364.333 207.654 370.87 211.148 377.986 212.563C385.102 213.979 392.479 213.252 399.182 210.476C405.886 207.699 411.615 202.997 415.647 196.964C419.678 190.931 421.829 183.838 421.829 176.582C421.801 166.861 417.927 157.546 411.053 150.672C404.179 143.799 394.864 139.924 385.143 139.896V139.896ZM385.143 150.902C387.32 150.902 389.448 151.547 391.258 152.757C393.068 153.966 394.478 155.685 395.311 157.696C396.144 159.707 396.362 161.92 395.938 164.055C395.513 166.19 394.465 168.151 392.926 169.69C391.386 171.229 389.425 172.277 387.29 172.702C385.155 173.127 382.942 172.909 380.931 172.076C378.92 171.243 377.202 169.832 375.992 168.022C374.783 166.212 374.137 164.084 374.137 161.908C374.147 158.992 375.31 156.198 377.372 154.136C379.434 152.074 382.227 150.911 385.143 150.902V150.902ZM385.143 203.885C380.795 203.865 376.518 202.785 372.682 200.738C368.847 198.691 365.568 195.739 363.132 192.138C363.308 184.801 377.806 180.762 385.143 180.762C392.48 180.762 406.979 184.801 407.155 192.138C404.715 195.736 401.436 198.686 397.601 200.733C393.766 202.779 389.49 203.861 385.143 203.885V203.885Z" fill="#0AE800"/>
<path d="M168.085 139.708C160.829 139.708 153.736 141.859 147.703 145.89C141.67 149.921 136.968 155.651 134.191 162.355C131.414 169.058 130.688 176.434 132.103 183.551C133.519 190.667 137.013 197.204 142.144 202.335C147.274 207.465 153.811 210.959 160.928 212.375C168.044 213.791 175.42 213.064 182.124 210.287C188.827 207.511 194.557 202.809 198.588 196.776C202.619 190.743 204.771 183.65 204.771 176.394C204.742 166.673 200.868 157.358 193.994 150.484C187.12 143.61 177.806 139.736 168.085 139.708ZM168.085 150.713C170.261 150.713 172.389 151.359 174.199 152.568C176.009 153.778 177.42 155.497 178.253 157.508C179.086 159.519 179.304 161.732 178.879 163.866C178.454 166.001 177.406 167.962 175.867 169.502C174.328 171.041 172.367 172.089 170.232 172.514C168.097 172.938 165.884 172.72 163.873 171.887C161.862 171.054 160.143 169.644 158.934 167.834C157.724 166.024 157.079 163.896 157.079 161.719C157.089 158.803 158.251 156.01 160.313 153.948C162.375 151.886 165.169 150.723 168.085 150.714V150.713ZM168.085 203.697C163.737 203.677 159.46 202.597 155.624 200.55C151.788 198.503 148.51 195.551 146.073 191.95C146.249 184.613 160.747 180.574 168.085 180.574C175.422 180.574 189.92 184.613 190.096 191.95C187.657 195.548 184.378 198.498 180.543 200.545C176.708 202.591 172.432 203.673 168.085 203.697V203.697Z" fill="#0AE800"/>
<path d="M821.312 273.759C821.312 273.759 827.257 351.04 818.934 353.418C810.612 355.796 780.888 373.631 733.33 368.875C733.33 368.875 686.96 393.843 694.094 370.064C701.228 346.285 733.33 352.229 733.33 352.229C733.33 352.229 790.399 340.34 792.777 332.017C795.155 323.695 785.644 289.215 789.21 288.026C792.777 286.837 821.312 273.759 821.312 273.759Z" fill="#FFB8B8"/>
<path d="M795.155 242.846L814.178 240.468C814.178 240.468 833.202 277.325 822.501 283.27C811.8 289.215 784.455 293.971 784.455 291.593C784.455 289.215 795.155 242.846 795.155 242.846Z" fill="#0AE800"/>
</g>
<defs>
<clipPath id="clip0">
<rect width="825.767" height="640.565" fill="white"/>
</clipPath>
</defs>
</svg>
